<svg width="47" height="47" viewBox="0 0 47 47" fill="none" xmlns="http://www.w3.org/2000/svg">
  <path fill-rule="evenodd" clip-rule="evenodd" d="M38.4152 25.3352C34.5509 26.6064 30.6758 26.15 28.126 24.4156C29.1865 21.4936 32.0596 18.8172 35.9239 17.546C39.7882 16.2748 43.6633 16.7312 46.2131 18.4656C46.1281 18.6997 46.0315 18.9322 45.9237 19.1626C44.6858 21.8075 41.9699 24.1659 38.4152 25.3352Z" fill="#43B397"/>
  <path fill-rule="evenodd" clip-rule="evenodd" d="M37.0727 29.6451C33.0403 29.1447 29.7166 27.0733 28.126 24.41C30.3028 22.2143 34.0209 21.0166 38.0533 21.517C42.0857 22.0173 45.4094 24.0888 47 26.752C46.8804 26.8727 46.7562 26.9903 46.6276 27.1047C44.4138 29.0742 40.8837 30.118 37.0727 29.6451Z" fill="#399981"/>
  <path fill-rule="evenodd" clip-rule="evenodd" d="M33.7465 33.258C30.3807 30.9507 28.3513 27.5718 28.1306 24.4662C31.0544 23.5162 34.9024 24.1665 38.2681 26.4738C41.6339 28.7811 43.6633 32.16 43.884 35.2657C43.7013 35.3251 43.5149 35.3782 43.3253 35.425C40.4811 36.1279 36.9018 35.4212 33.7465 33.258Z" fill="#30806B"/>
  <path fill-rule="evenodd" clip-rule="evenodd" d="M29.5677 34.8367C27.4755 31.3049 27.0407 27.3732 28.1321 24.4629C31.1782 24.8522 34.3968 27.0879 36.4889 30.6196C38.581 34.1514 39.0159 38.0831 37.9244 40.9934C37.6737 40.9614 37.4218 40.9168 37.1694 40.8601C34.3561 40.2272 31.4876 38.0777 29.5677 34.8367Z" fill="#266656"/>
  <path fill-rule="evenodd" clip-rule="evenodd" d="M31.5553 12.5512C30.9004 19.9684 24.4407 25.4427 17.1272 24.7785C16.2258 24.6966 15.3534 24.5253 14.5179 24.2738L30.0441 5C31.2237 7.23676 31.7951 9.83602 31.5553 12.5512Z" fill="#4CCCAC"/>
  <path fill-rule="evenodd" clip-rule="evenodd" d="M21.556 20.5088C21.5177 20.4832 21.4794 20.4576 21.441 20.4322C19.6873 19.2688 17.7206 17.8058 15.6547 17.3346C14.2894 17.0232 12.9503 17.2668 11.83 18.114C10.8275 18.872 10.5816 19.9957 9.77928 20.8833C9.04187 21.6992 0 25.6597 0 25.6597L0.126211 25.9596C0.126211 25.9596 8.57265 22.1751 10.2932 22.4923C12.0138 22.8096 15.4931 23.8806 17.7091 28.3861C20.0441 33.1337 24.5473 36.0669 27.05 35.7044L24.6171 42.7505C37.1455 43.3593 32.6922 32.7101 28.8303 27.3883C30.5503 26.8875 32.2188 26.1338 33.7594 25.3098C34.7006 24.8064 35.5826 24.1784 36.3982 23.4606C38.171 21.9001 39.6299 19.9152 40.7013 17.8634C42.1411 15.106 43.4198 11.772 43.8108 8.646C43.8108 8.646 30.2231 15.8888 21.556 20.5088Z" fill="#5FFFD7"/>
</svg>